<?xml version="1.0" standalone="no"?>
<!DOCTYPE svg PUBLIC "-//W3C//DTD SVG 20010904//EN"
 "http://www.w3.org/TR/2001/REC-SVG-20010904/DTD/svg10.dtd">
<svg version="1.0" xmlns="http://www.w3.org/2000/svg"
 width="3000.000000pt" height="3000.000000pt" viewBox="0 0 3000.000000 3000.000000"
 preserveAspectRatio="xMidYMid meet">
<metadata>
Created by potrace 1.14, written by Peter Selinger 2001-2017
</metadata>
<g transform="translate(0.000000,3000.000000) scale(0.100000,-0.100000)"
fill="#000000" stroke="none">
<path d="M11697 23244 c-1 -1 -42 -5 -91 -9 -49 -4 -98 -9 -110 -11 -11 -3
-113 -7 -226 -9 -249 -4 -297 -13 -424 -77 -53 -26 -64 -28 -126 -23 -81 7
-166 12 -350 20 -74 3 -173 8 -220 11 -124 6 -846 6 -975 0 -60 -3 -162 -9
-225 -12 -63 -3 -142 -7 -175 -9 -178 -11 -253 -17 -275 -20 -23 -3 -110 -12
-205 -20 -22 -1 -58 -6 -80 -9 -22 -3 -62 -8 -90 -11 -139 -16 -215 -25 -275
-35 -30 -5 -73 -12 -95 -15 -22 -3 -78 -12 -125 -20 -47 -7 -101 -16 -120 -19
-52 -8 -84 -14 -199 -37 -57 -12 -115 -23 -128 -25 -53 -10 -254 -55 -353 -80
-58 -14 -112 -27 -120 -29 -86 -19 -413 -116 -585 -172 -724 -238 -1379 -550
-1995 -951 -315 -206 -782 -560 -996 -757 -6 -5 -51 -46 -100 -90 -94 -84
-511 -498 -604 -600 -30 -33 -86 -96 -125 -140 -38 -44 -72 -82 -75 -85 -3 -3
-48 -57 -100 -120 -395 -477 -696 -920 -1017 -1495 -65 -117 -290 -572 -352
-712 -213 -485 -378 -962 -501 -1452 -27 -108 -52 -211 -55 -230 -3 -19 -8
-37 -10 -41 -2 -3 -6 -17 -9 -31 -2 -13 -12 -64 -21 -114 -10 -49 -19 -101
-21 -115 -2 -14 -9 -45 -14 -70 -5 -25 -11 -58 -14 -75 -2 -16 -9 -59 -14 -95
-16 -97 -22 -141 -27 -185 -3 -22 -7 -51 -10 -65 -2 -14 -7 -56 -11 -95 -3
-38 -8 -79 -10 -90 -2 -11 -7 -54 -10 -95 -3 -41 -7 -88 -9 -105 -27 -205 -27
-1045 0 -1332 2 -27 7 -79 10 -118 6 -74 33 -319 40 -370 2 -16 7 -52 10 -80
3 -27 8 -59 10 -70 2 -11 7 -42 10 -70 4 -27 13 -88 21 -135 8 -47 17 -101 20
-120 7 -49 32 -182 50 -265 20 -95 23 -115 29 -150 3 -16 9 -48 15 -70 5 -22
28 -121 50 -220 23 -99 57 -241 77 -315 19 -74 36 -139 38 -145 8 -34 20 -80
41 -155 13 -47 29 -101 34 -120 123 -437 482 -1517 580 -1745 5 -11 23 -60 41
-110 37 -104 265 -710 279 -740 4 -11 30 -76 56 -144 28 -74 57 -133 73 -148
38 -36 94 -60 138 -57 21 1 47 2 58 3 34 2 102 52 119 88 9 18 16 49 16 68 0
20 -45 153 -106 312 -129 337 -303 806 -374 1003 -28 80 -55 154 -60 165 -5
11 -15 40 -23 65 -9 25 -54 158 -102 295 -157 455 -316 978 -425 1400 -42 162
-128 525 -144 605 -2 14 -16 86 -31 160 -15 74 -29 144 -31 155 -2 11 -6 31
-9 45 -3 14 -7 43 -11 65 -6 44 -12 79 -18 110 -4 22 -16 96 -21 135 -2 14 -6
43 -9 65 -3 22 -8 58 -11 80 -3 22 -7 50 -9 62 -3 12 -7 48 -11 80 -3 32 -7
74 -10 93 -2 19 -7 62 -10 95 -3 33 -8 83 -11 110 -3 28 -7 73 -9 100 -2 28
-6 93 -9 145 -23 340 -23 784 -1 1075 17 215 30 358 40 415 3 14 7 52 11 85 3
33 8 69 10 80 3 11 7 38 10 60 7 57 13 90 29 175 8 41 17 89 20 105 6 39 24
129 41 205 3 14 7 36 10 50 3 14 10 43 16 65 5 22 12 49 14 60 25 132 164 608
244 833 60 171 153 417 186 490 13 29 24 55 24 57 0 12 148 332 224 485 340
685 767 1327 1260 1894 255 294 607 649 871 878 141 121 148 128 300 249 127
101 382 289 512 377 126 85 244 162 248 162 2 0 35 20 72 44 327 211 910 497
1348 661 207 78 667 226 805 260 8 2 116 28 240 59 124 30 241 58 260 61 19 3
87 17 150 30 63 13 131 27 150 30 19 3 62 10 95 16 66 12 83 15 198 33 69 11
77 11 73 -3 -3 -9 -7 -27 -10 -41 -3 -14 -41 -176 -86 -360 -44 -184 -87 -362
-95 -395 -28 -122 -74 -321 -79 -345 -2 -14 -16 -77 -31 -140 -14 -63 -27
-124 -30 -135 -2 -11 -22 -105 -45 -210 -23 -104 -44 -201 -46 -215 -3 -14 -7
-33 -10 -42 -3 -9 -7 -25 -9 -36 -2 -11 -13 -64 -25 -118 -12 -55 -23 -106
-25 -114 -3 -13 -81 -363 -90 -400 -17 -76 -25 -109 -29 -132 -12 -70 -49
-185 -77 -241 -22 -43 -59 -89 -124 -152 -109 -107 -407 -391 -438 -418 -12
-10 -58 -53 -102 -95 -45 -43 -155 -147 -245 -232 -186 -175 -317 -300 -397
-378 -94 -92 -121 -200 -64 -264 44 -50 131 -98 206 -113 37 -8 72 -19 79 -24
6 -5 32 -13 57 -18 94 -20 150 13 353 208 76 74 173 167 215 207 66 63 207
160 217 149 2 -2 -21 -111 -52 -243 -30 -131 -69 -297 -85 -369 -17 -71 -32
-137 -34 -145 -2 -8 -24 -103 -50 -210 -101 -429 -141 -559 -217 -720 -54
-111 -108 -197 -277 -438 -350 -499 -577 -881 -725 -1222 -15 -36 -36 -83 -46
-105 -25 -57 -77 -219 -94 -294 -20 -88 -16 -204 11 -261 33 -72 101 -132 229
-201 179 -97 196 -109 189 -137 -3 -15 -7 -37 -9 -49 -3 -12 -16 -66 -31 -120
-15 -54 -35 -129 -45 -168 -10 -38 -52 -194 -93 -345 -74 -268 -185 -680 -192
-710 -2 -8 -24 -91 -49 -185 -94 -348 -116 -434 -155 -590 -33 -135 -75 -337
-95 -460 -3 -16 -22 -129 -42 -250 -32 -199 -41 -303 -30 -360 18 -91 82 -206
138 -248 18 -14 58 -35 88 -47 30 -11 73 -29 95 -39 22 -10 61 -26 87 -36 l47
-17 40 31 c29 23 58 66 107 159 38 70 90 168 116 217 122 231 188 372 194 417
8 70 -37 156 -107 201 -23 15 -28 13 -128 -44 -56 -33 -104 -59 -106 -57 -9
11 148 688 210 903 8 28 46 160 84 295 39 135 118 403 176 595 59 193 143 469
186 614 43 145 89 287 102 315 41 90 130 164 232 196 77 24 117 52 208 143 87
88 97 94 192 131 55 22 118 46 140 55 85 33 189 92 344 194 227 151 270 176
448 265 146 72 278 143 363 195 65 39 295 190 330 217 19 15 62 46 95 71 126
93 460 362 490 395 40 44 457 374 472 374 5 0 23 -53 40 -118 84 -307 173
-392 503 -477 156 -40 244 -42 321 -8 94 42 401 331 584 550 192 230 463 605
558 773 8 14 56 95 106 180 309 525 612 1243 851 2020 69 223 81 277 85 394 6
165 -13 234 -88 311 -112 114 -328 166 -444 106 -40 -20 -454 -362 -487 -402
-33 -39 -66 -125 -72 -184 -5 -47 -3 -56 7 -50 51 30 118 82 223 172 66 58
148 124 181 146 66 45 167 97 190 97 37 0 57 -206 31 -310 -35 -135 -312 -867
-521 -1375 -39 -96 -243 -517 -253 -525 -4 -3 -18 -25 -31 -50 -232 -438 -836
-1200 -1127 -1422 l-61 -47 -22 82 c-66 253 -57 393 33 516 41 56 118 117 196
156 l55 28 -55 15 c-30 9 -61 22 -68 29 -7 7 -17 13 -22 13 -4 0 -17 14 -28
31 -28 44 -20 92 34 228 26 64 66 170 89 236 70 198 96 267 120 320 13 28 48
113 80 190 31 77 63 154 70 170 7 17 36 86 65 155 29 69 65 157 82 195 29 66
41 93 90 205 11 25 29 65 40 90 66 148 240 491 348 685 108 193 490 846 557
950 23 37 57 72 87 93 43 29 56 32 95 28 25 -3 84 -8 131 -11 47 -3 109 -7
138 -10 28 -3 77 -7 107 -10 105 -10 170 -16 200 -20 17 -2 68 -7 115 -10 47
-4 92 -8 100 -10 8 -2 51 -7 95 -10 44 -4 109 -11 144 -15 36 -5 69 -6 74 -3
8 5 3 -73 -8 -137 -4 -21 -18 -140 -20 -170 -4 -55 -17 -173 -20 -188 -1 -10
-6 -55 -10 -101 -4 -47 -8 -92 -10 -100 -23 -126 -23 -687 0 -823 2 -13 9 -54
15 -92 13 -79 88 -313 127 -393 49 -99 129 -160 248 -188 101 -23 111 -25 365
-60 19 -3 49 -7 65 -10 17 -3 48 -7 69 -10 22 -3 42 -7 44 -10 4 -3 -66 -188
-98 -260 -5 -11 -29 -69 -54 -130 -125 -307 -223 -503 -436 -871 -191 -329
-541 -816 -940 -1304 -195 -238 -402 -526 -458 -636 -47 -92 -47 -214 -1 -311
34 -72 70 -105 159 -147 51 -24 78 -30 130 -30 123 -1 178 50 415 381 82 114
246 329 364 478 363 454 441 564 746 1040 70 110 146 229 169 265 23 36 56 94
73 130 35 74 559 1251 665 1495 38 88 78 178 88 200 10 22 32 74 50 115 18 41
41 95 53 120 11 25 44 99 73 165 49 112 68 155 154 340 61 132 220 497 220
506 0 5 4 17 10 27 42 76 138 357 240 707 33 110 292 900 317 965 7 17 6 12
23 70 7 25 13 48 12 52 -1 3 11 3 26 -2 110 -33 362 -113 542 -173 118 -39
220 -72 225 -73 15 -4 467 -163 490 -173 11 -5 85 -32 165 -61 153 -55 162
-58 440 -165 171 -65 615 -243 675 -270 17 -7 138 -59 270 -115 132 -56 269
-116 305 -132 36 -17 126 -57 200 -90 74 -33 169 -76 210 -95 76 -36 184 -87
354 -168 118 -55 635 -313 776 -387 241 -126 307 -161 335 -178 17 -9 68 -38
115 -63 47 -25 134 -73 194 -106 60 -34 111 -61 113 -61 2 0 20 -11 41 -23 20
-13 59 -36 87 -52 475 -264 1172 -696 1715 -1063 277 -188 300 -203 341 -233
19 -14 90 -65 159 -114 173 -123 274 -198 278 -207 2 -5 8 -8 12 -8 9 0 460
-339 480 -360 3 -3 61 -50 130 -105 215 -170 570 -468 735 -617 17 -14 39 -35
51 -45 304 -264 1001 -948 1194 -1173 12 -14 40 -45 63 -70 36 -38 120 -133
226 -255 102 -117 205 -241 306 -365 64 -80 123 -153 131 -163 115 -141 530
-710 579 -795 6 -9 13 -19 16 -22 4 -3 15 -19 25 -36 11 -17 37 -58 58 -90
166 -250 398 -640 558 -939 51 -94 308 -611 308 -619 0 -2 15 -37 34 -78 19
-40 60 -134 91 -208 31 -74 62 -148 69 -165 8 -16 35 -86 61 -155 25 -69 51
-134 55 -145 52 -119 240 -712 265 -833 2 -9 12 -62 23 -117 30 -149 37 -224
36 -395 0 -167 -5 -214 -35 -331 -102 -409 -435 -813 -894 -1087 -152 -90
-469 -237 -555 -257 -8 -2 -62 -20 -120 -40 -166 -57 -525 -153 -715 -191 -11
-2 -31 -6 -45 -9 -53 -11 -76 -16 -100 -20 -14 -2 -131 -24 -260 -49 -129 -24
-251 -47 -270 -50 -19 -3 -46 -8 -60 -10 -83 -16 -205 -37 -237 -41 -12 -2
-34 -6 -50 -9 -44 -10 -74 -15 -118 -21 -22 -4 -76 -12 -120 -20 -85 -15 -113
-19 -185 -30 -25 -4 -52 -9 -60 -10 -14 -2 -40 -7 -135 -21 -16 -3 -41 -7 -55
-9 -14 -2 -45 -6 -70 -10 -25 -3 -56 -8 -70 -10 -14 -3 -45 -7 -70 -10 -25 -3
-56 -8 -70 -10 -14 -2 -45 -6 -70 -10 -25 -3 -56 -8 -70 -10 -24 -4 -66 -10
-140 -19 -19 -3 -55 -7 -80 -11 -73 -9 -169 -22 -285 -36 -44 -5 -96 -12 -115
-14 -19 -3 -58 -7 -85 -10 -28 -2 -64 -6 -80 -9 -17 -2 -61 -7 -100 -11 -38
-4 -77 -8 -85 -10 -8 -2 -53 -6 -100 -10 -47 -4 -92 -8 -100 -10 -8 -2 -53 -6
-100 -10 -47 -4 -92 -8 -100 -10 -8 -2 -51 -6 -95 -9 -44 -4 -98 -9 -120 -11
-22 -2 -71 -7 -110 -10 -38 -3 -90 -8 -115 -10 -25 -3 -81 -7 -125 -10 -44 -3
-102 -8 -130 -10 -27 -2 -90 -7 -140 -10 -49 -3 -115 -8 -145 -10 -61 -5 -254
-17 -470 -30 -232 -13 -285 -16 -645 -30 -122 -5 -486 -16 -670 -21 -177 -4
-1553 -4 -1705 0 -58 2 -211 7 -340 11 -345 10 -405 12 -805 30 -213 10 -457
23 -560 30 -38 3 -110 7 -160 10 -157 9 -262 16 -435 30 -36 3 -99 7 -140 10
-108 7 -208 15 -265 20 -27 2 -85 7 -127 10 -42 3 -89 7 -105 9 -15 2 -71 7
-123 11 -52 4 -104 9 -114 11 -11 2 -58 6 -106 9 -47 3 -95 7 -107 9 -12 3
-54 7 -95 11 -40 3 -89 8 -108 10 -19 2 -62 7 -95 10 -33 3 -80 8 -105 10 -25
3 -70 7 -100 10 -30 3 -71 7 -90 10 -19 3 -62 7 -95 10 -33 3 -71 8 -85 10
-14 2 -54 7 -90 10 -36 3 -76 8 -90 10 -14 2 -52 7 -85 10 -33 3 -71 8 -85 10
-14 2 -52 6 -85 10 -33 3 -71 8 -85 10 -14 2 -47 6 -75 10 -27 3 -86 10 -130
16 -138 17 -148 18 -240 29 -49 6 -151 20 -225 30 -74 10 -157 22 -185 25 -27
4 -61 8 -75 10 -14 2 -47 7 -75 11 -27 3 -58 8 -69 10 -10 2 -44 6 -75 9 -31
4 -63 8 -71 10 -8 2 -37 7 -65 10 -27 3 -61 8 -75 10 -14 3 -38 7 -55 9 -16 2
-50 7 -75 11 -25 4 -58 9 -75 11 -16 2 -41 6 -55 9 -14 3 -47 7 -75 11 -27 3
-57 7 -65 9 -14 3 -71 11 -135 21 -16 3 -37 7 -45 9 -8 2 -37 6 -65 10 -27 3
-115 17 -195 30 -80 13 -163 26 -185 29 -22 4 -51 8 -65 11 -27 5 -45 8 -170
29 -47 8 -98 17 -115 19 -37 6 -331 56 -365 63 -14 2 -41 7 -60 10 -19 3 -41
7 -49 10 -8 2 -37 7 -65 10 -28 3 -54 8 -57 9 -3 2 -36 9 -74 15 -38 6 -72 13
-77 16 -7 5 39 70 125 175 15 19 80 102 143 184 64 83 121 157 127 165 15 18
213 301 389 555 220 319 550 825 633 972 6 10 40 70 77 133 107 184 141 249
285 540 75 151 168 327 208 391 91 145 164 280 345 634 299 587 499 975 510
990 9 11 279 551 333 665 51 107 139 309 252 575 142 336 184 434 205 480 9
22 32 74 50 115 18 41 110 230 205 420 545 1089 559 1115 657 1208 46 45 189
122 226 122 46 0 18 19 -115 75 -76 32 -151 64 -168 71 -77 32 -141 35 -252 9
-120 -28 -153 -52 -240 -177 -43 -62 -105 -156 -138 -208 -53 -86 -340 -651
-478 -940 -30 -63 -95 -198 -144 -300 -50 -102 -115 -237 -145 -300 -31 -63
-87 -180 -126 -260 -38 -80 -93 -194 -122 -255 -29 -60 -82 -171 -118 -245
-35 -74 -77 -162 -92 -195 -15 -33 -70 -148 -122 -255 -53 -107 -108 -222
-123 -255 -15 -33 -132 -271 -260 -530 -127 -258 -234 -477 -238 -485 -4 -8
-35 -69 -70 -135 -35 -66 -96 -183 -137 -260 -71 -136 -98 -187 -159 -297 -16
-29 -42 -78 -59 -108 -165 -305 -459 -802 -712 -1205 -184 -293 -612 -929
-774 -1150 -97 -132 -194 -266 -210 -290 -29 -41 -219 -293 -312 -413 -77 -99
-81 -102 -145 -89 l-36 7 18 81 c18 75 52 168 112 299 13 30 39 89 57 130 64
148 182 416 210 477 16 33 95 213 176 400 81 186 155 356 165 378 31 70 192
451 309 730 61 149 118 284 125 300 56 126 227 564 240 615 70 272 -41 458
-355 596 -158 69 -205 66 -273 -18 -29 -37 -107 -162 -107 -173 0 -5 -354
-727 -435 -887 -102 -201 -152 -295 -219 -413 -55 -95 -82 -140 -235 -385 -63
-101 -326 -496 -406 -610 -86 -123 -346 -484 -395 -550 -11 -14 -57 -77 -104
-140 -275 -372 -388 -520 -397 -520 -5 0 -53 9 -105 21 -53 11 -104 22 -113
24 -44 9 -262 57 -303 67 -30 7 -48 17 -48 26 0 8 16 76 35 151 29 116 160
647 170 691 2 8 22 89 45 180 23 91 43 172 45 180 2 8 13 53 25 100 12 47 23
92 25 100 13 56 182 700 216 825 11 39 22 78 24 88 34 149 195 665 395 1272
87 264 166 506 175 538 35 123 1 248 -95 347 -83 84 -201 124 -299 100 -60
-14 -107 -59 -145 -135 -15 -31 -67 -197 -116 -368 -257 -902 -312 -1094 -316
-1115 -2 -13 -11 -42 -19 -65 -7 -23 -52 -177 -99 -342 -48 -165 -93 -322
-101 -350 -23 -80 -67 -239 -70 -255 -2 -8 -8 -35 -15 -60 -7 -25 -14 -52 -15
-60 -2 -8 -20 -80 -40 -160 -20 -80 -38 -152 -40 -160 -2 -8 -30 -123 -63
-255 -61 -246 -132 -538 -137 -565 -2 -8 -8 -35 -15 -60 -7 -25 -14 -54 -16
-65 -2 -11 -10 -47 -18 -80 -8 -33 -31 -129 -51 -212 -27 -113 -41 -153 -52
-153 -19 0 -543 128 -718 176 -71 19 -137 36 -146 39 -55 12 -432 126 -574
172 -202 66 -543 191 -650 237 -16 8 -55 24 -85 36 -30 12 -79 33 -107 46 -29
13 -79 36 -110 50 -417 190 -793 410 -1133 663 -63 47 -117 88 -120 91 -3 3
-30 25 -60 50 -30 24 -66 55 -80 69 -60 58 -157 74 -227 37 -101 -52 -143
-168 -90 -247 66 -99 556 -461 877 -649 192 -112 261 -149 485 -259 229 -112
224 -109 411 -189 136 -58 410 -164 524 -203 464 -160 902 -286 1518 -439 176
-44 212 -56 208 -69 -3 -9 -7 -28 -10 -44 -3 -15 -7 -35 -10 -45 -3 -9 -8 -28
-10 -42 -3 -14 -10 -45 -17 -70 -6 -25 -12 -52 -14 -60 -49 -211 -67 -290 -79
-350 -18 -82 -65 -323 -81 -415 -31 -176 -48 -265 -65 -344 -36 -169 -22 -244
60 -313 73 -63 126 -81 241 -80 69 1 164 27 219 61 17 10 52 38 78 62 71 66
72 67 156 84 119 25 172 59 311 200 115 117 170 176 225 245 25 30 47 57 50
60 8 7 122 149 145 181 26 35 396 511 406 523 5 6 64 -1 146 -18 76 -14 149
-29 163 -31 14 -3 50 -10 80 -16 30 -6 62 -13 70 -14 11 -2 14 -13 12 -46 -1
-24 -4 -111 -6 -192 -4 -133 -2 -158 20 -238 13 -49 30 -102 38 -117 18 -35
72 -89 106 -107 81 -41 318 -66 421 -44 24 5 77 26 118 46 110 53 186 134 305
326 63 101 103 157 114 157 14 0 73 -11 247 -44 32 -6 137 -25 175 -31 19 -3
96 -17 170 -30 74 -13 151 -27 170 -30 19 -3 85 -14 145 -25 61 -10 128 -21
149 -24 21 -4 48 -8 60 -11 12 -2 39 -7 61 -10 22 -3 65 -10 95 -15 65 -11 92
-16 185 -30 39 -6 81 -13 95 -15 14 -2 43 -7 65 -10 53 -8 76 -12 160 -25 39
-7 81 -13 95 -15 14 -2 39 -6 55 -9 70 -12 574 -85 695 -101 25 -3 56 -8 70
-10 14 -2 63 -9 110 -15 47 -6 96 -13 110 -16 14 -2 45 -6 70 -9 25 -3 59 -7
75 -10 17 -2 53 -7 80 -10 28 -4 61 -8 75 -10 14 -2 48 -7 75 -10 28 -3 66 -8
85 -10 79 -11 109 -15 185 -24 44 -6 105 -13 135 -16 99 -12 159 -19 240 -30
19 -3 62 -7 95 -10 33 -3 69 -7 80 -9 11 -2 54 -7 95 -11 41 -4 82 -9 90 -10
8 -2 53 -6 100 -10 47 -4 87 -8 90 -10 3 -2 41 -6 85 -10 44 -4 91 -8 105 -10
14 -1 59 -6 100 -9 41 -4 91 -9 110 -11 42 -6 100 -12 195 -20 39 -3 88 -7
110 -10 65 -6 155 -14 230 -20 39 -3 88 -8 110 -10 22 -2 76 -7 120 -10 44 -3
103 -8 130 -10 28 -2 86 -7 130 -10 44 -3 100 -8 125 -10 25 -2 90 -7 145 -10
55 -3 118 -8 140 -10 22 -2 90 -7 150 -10 61 -4 130 -8 155 -10 85 -6 287 -17
540 -30 63 -3 158 -7 210 -10 52 -3 165 -7 250 -10 85 -3 200 -8 255 -10 621
-26 2259 -26 2787 0 40 2 152 6 248 10 96 3 204 8 240 10 36 2 121 7 190 10
188 10 248 13 346 20 49 3 121 8 159 10 39 2 104 7 145 10 41 3 104 8 140 11
36 2 94 7 130 9 36 3 94 8 130 11 62 4 102 8 223 19 28 2 84 7 122 10 39 3 88
8 110 10 22 2 72 7 110 10 39 3 81 8 95 10 14 2 54 7 90 10 36 3 81 8 100 10
19 3 59 7 87 10 102 10 158 16 183 20 14 2 54 6 90 10 36 3 76 8 90 10 14 2
50 7 80 10 30 4 66 8 80 10 14 2 50 6 80 10 30 3 66 8 80 10 14 2 49 7 79 10
30 4 61 8 70 10 9 1 41 6 71 10 30 3 66 8 80 10 14 2 45 7 70 10 55 7 315 45
350 50 82 14 257 40 328 50 20 3 57 10 82 15 41 8 121 22 145 25 13 1 104 16
130 21 11 2 34 6 50 9 17 3 41 7 55 10 14 3 41 7 60 10 50 8 69 11 215 39 72
14 146 28 165 31 32 5 93 17 160 30 14 3 61 12 105 21 44 8 105 21 135 29 30
7 69 16 85 18 117 17 563 137 790 212 658 218 1163 550 1461 960 207 286 317
549 361 865 10 68 10 382 1 470 -15 147 -64 392 -104 530 -185 632 -420 1227
-728 1845 -96 194 -245 472 -320 598 -25 43 -46 80 -46 82 0 6 -155 259 -244
398 -44 70 -88 139 -96 153 -129 209 -599 856 -792 1089 -10 11 -54 65 -99
120 -100 122 -163 197 -288 340 -67 77 -168 192 -186 211 -11 12 -63 68 -115
125 -255 278 -631 653 -935 934 -176 162 -207 190 -355 320 -74 65 -148 130
-165 144 -16 15 -70 60 -120 101 -49 41 -92 77 -95 80 -17 19 -464 379 -559
450 -18 14 -56 43 -84 66 -46 36 -431 323 -482 360 -11 8 -72 51 -135 97 -253
183 -728 505 -1065 722 -73 47 -506 317 -530 329 -11 6 -96 57 -190 112 -284
169 -550 321 -755 431 -36 20 -78 43 -95 53 -107 62 -463 247 -855 443 -483
242 -862 419 -1330 622 -124 54 -243 106 -265 116 -57 25 -390 163 -509 211
-56 22 -114 46 -131 53 -16 7 -138 55 -270 105 -132 50 -249 96 -260 100 -11
5 -49 19 -85 31 -36 12 -69 25 -75 29 -5 4 -19 10 -30 13 -11 3 -65 22 -120
42 -430 155 -999 346 -1387 464 -54 16 -112 41 -130 54 -101 76 -204 110 -343
112 -85 2 -125 9 -265 48 -463 129 -1300 332 -1610 390 -14 3 -70 14 -125 26
-110 22 -142 28 -195 37 -19 3 -38 8 -41 10 -4 2 -24 6 -45 10 -22 3 -84 14
-139 24 -55 11 -112 21 -128 24 -15 3 -53 10 -85 15 -31 6 -73 13 -92 16 -38
6 -134 22 -177 30 -24 4 -238 38 -313 50 -152 23 -179 27 -320 46 -41 6 -76
12 -77 13 -1 1 3 18 9 38 18 61 2 127 -42 169 -46 44 -106 61 -203 57 -38 -2
-69 -4 -70 -4z m-1373 -479 c38 -3 71 -7 73 -9 3 -3 -276 -277 -702 -691 -60
-59 -218 -212 -350 -340 -132 -128 -271 -263 -310 -300 -38 -37 -173 -167
-299 -289 -349 -338 -404 -389 -571 -531 -44 -38 -93 -80 -108 -94 l-29 -26 7
45 c3 25 8 52 10 60 2 8 6 31 9 50 3 19 15 85 27 145 11 61 23 121 26 135 2
14 9 45 14 70 6 25 12 54 15 65 2 11 11 54 19 95 8 41 17 84 19 95 2 11 9 38
14 60 6 22 13 52 16 67 6 33 34 155 93 397 25 101 46 191 48 200 5 21 66 255
104 401 17 63 31 130 31 148 0 51 -25 92 -86 141 -29 24 -54 47 -54 52 0 5 17
9 38 10 20 0 44 2 52 3 18 4 153 15 252 22 40 2 98 6 128 9 30 2 127 7 215 10
88 4 162 8 164 10 5 6 1055 -4 1135 -10z m1701 -166 c77 -10 158 -22 180 -25
22 -3 81 -12 130 -20 50 -8 101 -17 115 -19 82 -13 389 -66 410 -70 29 -6 136
-25 165 -30 11 -1 70 -13 130 -25 61 -12 121 -24 135 -26 14 -2 48 -9 75 -15
28 -6 61 -13 75 -15 14 -3 90 -18 170 -35 80 -17 155 -32 167 -35 12 -2 114
-25 225 -50 112 -25 212 -48 224 -50 109 -21 1024 -257 1043 -269 5 -2 2 -24
-6 -47 -13 -38 -67 -217 -149 -498 -46 -157 -132 -404 -178 -512 -69 -162
-195 -412 -266 -531 -11 -18 -29 -50 -41 -71 -11 -22 -77 -132 -146 -245 -69
-113 -133 -218 -142 -233 -131 -221 -500 -790 -520 -802 -13 -8 -83 23 -101
45 -17 18 -25 49 -22 80 0 3 3 41 7 85 3 43 8 93 10 109 2 17 7 68 10 115 4
47 8 97 10 111 2 14 6 66 10 115 3 49 8 96 10 104 2 8 7 51 10 95 3 44 8 91
10 105 2 14 7 59 10 100 4 41 9 84 11 95 2 11 6 79 10 150 7 180 17 216 70
273 42 44 56 84 34 97 -20 13 -40 79 -40 134 0 31 7 90 16 131 18 84 14 225
-7 259 -34 54 -248 123 -368 119 -66 -3 -145 -112 -232 -318 -47 -112 -94
-151 -172 -144 -22 3 -86 15 -141 28 -223 54 -401 65 -566 35 -88 -15 -83 -15
-137 -5 -41 7 -43 9 -43 44 0 78 30 139 114 233 21 24 49 63 63 87 24 41 24
44 8 62 -24 27 -78 50 -115 50 -53 0 -97 -28 -178 -114 -138 -145 -228 -232
-273 -263 -42 -28 -103 -55 -111 -48 -1 2 -32 6 -68 10 -36 3 -76 8 -90 10
-14 2 -63 6 -110 10 -47 3 -96 8 -110 10 -14 2 -53 7 -88 10 -101 11 -280 50
-364 80 -72 26 -77 29 -66 48 6 11 15 26 20 31 35 41 639 952 753 1136 60 96
118 191 130 210 12 19 34 56 49 82 30 53 1 51 241 17z m-1117 -186 c-28 -49
-70 -122 -93 -163 -86 -154 -100 -177 -163 -279 -115 -188 -179 -268 -337
-426 -70 -70 -146 -160 -208 -247 -70 -98 -102 -136 -115 -134 -9 2 -46 7 -82
11 -36 4 -72 9 -80 10 -8 1 -44 6 -80 9 -36 4 -74 9 -85 11 -11 2 -37 4 -57 4
-21 1 -38 5 -38 9 0 15 618 619 865 844 171 156 503 438 517 438 3 0 -16 -39
-44 -87z m-1183 -1308 c62 -22 153 -67 183 -91 l22 -19 -51 -60 c-28 -33 -73
-85 -99 -115 -27 -30 -58 -66 -70 -80 -12 -14 -31 -36 -43 -50 -12 -14 -114
-133 -227 -265 -112 -132 -207 -242 -210 -245 -4 -3 -116 -133 -250 -290 -135
-157 -247 -287 -250 -290 -3 -3 -45 -52 -95 -110 -49 -58 -92 -107 -95 -110
-3 -3 -18 -21 -34 -40 -16 -19 -52 -62 -81 -95 -29 -33 -117 -134 -195 -225
-78 -91 -152 -176 -164 -190 -12 -14 -91 -106 -176 -205 -85 -99 -166 -193
-181 -210 -14 -16 -68 -78 -119 -138 -92 -107 -110 -123 -160 -137 l-26 -8 43
167 c24 91 45 175 47 186 2 11 14 56 26 100 12 44 24 91 26 105 3 14 14 54 24
90 10 36 46 173 80 305 34 132 69 258 77 280 13 30 218 243 837 863 452 453
839 836 862 852 22 16 56 33 75 39 46 14 163 7 224 -14z m1080 -300 c36 -7
249 -44 280 -49 17 -3 83 -12 147 -21 65 -9 125 -17 135 -19 10 -2 45 -7 77
-11 105 -12 105 -1 -6 -185 -55 -91 -159 -257 -230 -370 -177 -279 -294 -474
-403 -675 -21 -38 -51 -95 -68 -125 -98 -176 -289 -572 -404 -835 -40 -93 -79
-181 -85 -195 -6 -14 -14 -34 -19 -45 -4 -11 -16 -38 -25 -60 -31 -74 -95
-239 -120 -310 -14 -38 -31 -83 -39 -100 -25 -56 -142 -400 -250 -735 -36
-111 -80 -194 -127 -237 -13 -11 -153 -119 -313 -238 -245 -184 -658 -505
-675 -525 -3 -3 -36 -31 -75 -62 -159 -126 -381 -258 -795 -471 -113 -58 -234
-122 -270 -142 -127 -73 -584 -287 -730 -342 -84 -32 -234 -83 -236 -80 -8 8
56 273 116 482 39 138 103 360 141 495 38 135 76 266 85 291 8 25 16 54 19 65
13 64 60 199 91 261 19 40 82 133 138 206 95 122 455 576 494 622 9 11 51 63
93 115 71 89 390 480 427 525 9 11 51 61 92 110 41 50 117 140 169 200 53 61
107 123 121 139 14 17 59 68 100 115 42 47 138 158 215 246 76 88 162 187 190
220 229 264 347 400 415 480 24 28 46 52 49 55 3 3 26 30 51 60 25 30 48 57
51 60 3 3 122 140 264 305 141 165 269 314 284 330 24 28 222 261 266 314 64
77 82 94 124 119 52 31 118 42 176 29 22 -5 49 -10 60 -12z m-525 -11363 c0
-5 -14 -46 -31 -93 -17 -46 -32 -91 -34 -99 -7 -33 -76 -196 -155 -365 -21
-44 -99 -255 -125 -338 -15 -48 -30 -89 -34 -91 -4 -3 -37 2 -74 10 -37 7 -82
17 -100 20 -18 3 -39 7 -47 9 -8 2 -22 4 -30 4 -45 3 -43 18 17 97 81 106 159
222 216 319 25 44 87 132 138 195 105 132 171 229 199 294 14 33 25 46 40 46
11 0 20 -4 20 -8z m-1790 -1087 c112 -25 205 -47 207 -48 2 -2 -48 -73 -110
-158 -62 -85 -163 -224 -224 -309 -105 -146 -237 -299 -249 -288 -17 18 -14
87 11 189 15 63 29 124 31 136 2 12 8 33 13 45 5 13 9 26 9 31 0 9 106 447
108 447 0 0 92 -20 204 -45z"/>
<path d="M18825 13187 c-16 -5 -73 -41 -125 -80 -242 -178 -345 -254 -379
-282 -20 -16 -57 -46 -81 -65 -137 -108 -466 -461 -741 -795 -10 -11 -34 -41
-55 -66 -22 -25 -50 -59 -64 -76 -27 -33 -71 -83 -229 -267 -357 -414 -649
-821 -948 -1321 -66 -110 -133 -222 -148 -250 -15 -27 -61 -111 -103 -185
-194 -350 -390 -757 -418 -869 -42 -172 -74 -365 -71 -422 9 -139 90 -245 244
-320 49 -23 95 -45 104 -49 28 -14 168 -51 217 -57 145 -19 274 7 389 79 43
28 256 190 273 208 3 3 39 32 80 65 243 194 447 393 675 660 33 39 62 72 65
75 3 3 50 61 105 130 55 69 102 127 105 130 7 7 189 252 234 315 55 78 339
503 382 573 21 35 63 102 93 150 60 98 270 455 321 547 18 33 42 75 52 93 10
17 27 49 39 70 12 20 29 51 39 67 33 55 110 208 110 217 0 6 6 24 14 41 30 66
87 264 92 323 11 119 -27 184 -153 257 -97 56 -180 82 -241 73 -27 -3 -86 -29
-146 -61 -109 -60 -111 -61 -199 -117 -32 -21 -60 -38 -62 -38 -7 0 -199 -132
-222 -153 -17 -15 -78 -117 -101 -169 -2 -4 7 -13 20 -19 22 -9 52 7 303 167
154 97 293 185 308 196 16 11 31 18 34 14 10 -10 11 -186 1 -230 -6 -22 -11
-45 -12 -51 -5 -23 -20 -63 -38 -104 -27 -59 -536 -861 -827 -1301 -42 -63
-78 -119 -80 -125 -2 -5 -7 -12 -11 -15 -3 -3 -44 -61 -90 -130 -257 -385
-403 -581 -600 -805 -61 -70 -362 -369 -443 -440 -222 -196 -502 -392 -518
-362 -13 24 -49 196 -49 234 0 54 21 120 89 281 79 184 237 524 273 587 6 11
23 43 36 70 49 97 255 465 322 575 5 8 28 47 51 85 238 394 619 930 996 1398
157 195 235 290 455 552 16 20 118 140 204 240 23 28 102 120 174 205 73 85
142 167 155 181 206 237 255 301 246 318 -23 43 -93 66 -146 48z"/>
<path d="M16205 13151 c-22 -10 -47 -24 -55 -32 -9 -8 -62 -50 -120 -93 -439
-332 -629 -508 -813 -756 -131 -176 -151 -201 -248 -310 -502 -565 -1051
-1352 -1399 -2005 -23 -44 -55 -102 -70 -130 -85 -154 -295 -587 -340 -700
-68 -172 -130 -399 -135 -494 -7 -131 33 -241 119 -323 72 -70 267 -163 407
-194 13 -3 60 -8 104 -11 156 -11 250 27 459 185 311 235 440 354 711 653 404
444 868 1118 1250 1818 65 120 241 470 295 586 16 33 46 100 69 148 22 49 47
103 55 120 69 152 61 293 -22 380 -122 129 -296 158 -462 78 -170 -83 -405
-236 -458 -299 -87 -102 -132 -162 -121 -162 38 0 176 60 257 112 221 140 268
163 362 174 l50 6 -6 -68 c-6 -84 -18 -145 -50 -249 -27 -86 -110 -264 -156
-332 -15 -23 -28 -44 -28 -47 0 -6 -230 -381 -294 -481 -18 -27 -55 -84 -81
-125 -448 -699 -696 -1046 -983 -1373 -143 -163 -405 -425 -533 -532 -124
-104 -189 -153 -279 -209 l-105 -66 -13 32 c-40 96 -46 253 -13 339 5 13 9 26
9 29 3 22 81 226 142 370 153 357 316 676 534 1040 44 74 85 143 91 152 154
265 589 881 882 1248 158 198 339 422 499 615 18 22 126 155 240 295 199 246
342 420 354 430 25 23 110 130 110 139 0 18 -97 61 -137 61 -21 0 -56 -9 -78
-19z"/>
<path d="M24201 12175 c-66 -19 -167 -72 -315 -168 -61 -40 -216 -140 -344
-222 -128 -83 -346 -223 -485 -313 -258 -166 -728 -455 -759 -467 -39 -15 -28
26 34 132 61 104 66 119 55 173 -54 271 -240 414 -537 413 -131 -1 -451 -66
-700 -144 -52 -17 -153 -48 -225 -70 -71 -22 -136 -42 -143 -44 -7 -3 46 61
118 141 71 80 130 149 130 153 0 4 -12 27 -28 52 -15 24 -43 76 -62 114 -44
90 -121 169 -181 185 -109 30 -193 -14 -353 -185 -214 -228 -225 -242 -581
-720 -164 -220 -314 -422 -335 -450 -21 -27 -107 -144 -192 -260 -84 -115
-190 -259 -233 -318 -154 -209 -543 -744 -565 -777 -8 -12 -29 -41 -46 -64
-29 -39 -131 -183 -204 -290 -92 -132 -226 -329 -235 -344 -5 -9 -29 -44 -52
-78 -163 -235 -150 -399 38 -486 267 -124 680 -54 1029 176 1233 810 1743
1179 2215 1606 33 30 78 70 99 90 22 19 67 60 100 90 34 31 79 71 100 90 21
19 45 41 52 48 7 6 61 55 120 107 l107 94 31 -24 c158 -119 417 -150 711 -84
50 11 101 22 115 25 14 3 43 10 65 16 22 6 45 12 50 14 6 1 71 18 145 38 74
20 142 39 150 41 60 14 199 51 269 71 46 13 93 26 105 29 11 2 106 27 210 54
209 56 323 80 446 97 25 3 47 8 50 10 2 3 14 -12 26 -32 l22 -37 -81 -101
c-45 -56 -84 -103 -87 -106 -3 -3 -22 -26 -43 -53 -77 -95 -236 -238 -357
-319 -14 -10 -45 -32 -70 -49 -133 -93 -213 -147 -390 -259 -107 -68 -217
-137 -245 -155 -425 -271 -1067 -600 -1500 -770 -38 -15 -91 -36 -117 -46
-192 -77 -612 -207 -838 -260 -106 -24 -164 -50 -180 -78 -19 -36 -12 -96 16
-137 31 -45 41 -55 112 -112 62 -49 117 -66 187 -59 74 7 330 62 605 129 293
71 715 221 1036 369 38 17 94 43 124 56 98 45 711 350 840 418 560 299 1007
636 1295 979 55 65 215 291 266 374 57 94 38 192 -65 336 -99 138 -215 216
-371 247 -49 10 -268 14 -283 6 -4 -3 -34 -8 -67 -11 -33 -4 -71 -9 -85 -11
-14 -2 -52 -6 -85 -10 -33 -3 -76 -8 -95 -10 -90 -11 -211 -25 -270 -31 -36
-3 -85 -10 -110 -13 -25 -4 -51 -6 -58 -3 -37 12 1 45 201 179 116 78 403 271
637 428 234 158 444 299 468 313 23 15 42 32 42 39 0 24 -183 198 -233 222
-61 29 -146 35 -216 16z m-2561 -960 c-74 -195 -380 -543 -839 -955 -97 -87
-85 -77 -181 -160 -41 -36 -77 -67 -80 -70 -3 -3 -41 -34 -85 -70 -44 -35 -82
-67 -85 -70 -3 -3 -59 -48 -124 -100 -316 -251 -482 -373 -781 -573 -150 -100
-387 -247 -400 -247 -2 0 -26 -13 -53 -29 -59 -35 -233 -114 -238 -108 -3 2
213 294 478 648 266 354 601 803 745 996 145 193 278 364 297 378 32 24 45 27
143 30 181 6 298 37 648 172 209 81 510 181 547 182 15 1 16 -3 8 -24z"/>
</g>
</svg>
