<svg id="Layer_1" data-name="Layer 1" xmlns="http://www.w3.org/2000/svg" width="307.2" height="270.72" viewBox="0 0 307.2 270.72"><defs><style>.cls-1{fill:#fff;}</style></defs><path class="cls-1" d="M0,0H307.2V270.72H0ZM299.58,204V7.62H7.59V204Zm-292,7.72v51.41h292V211.76Z" transform="translate(0)"/><path class="cls-1" d="M30.72,184.27q29-78.15,0-156.25h1.64q35.08,0,70.19,0a1.55,1.55,0,0,1,1.77,1.24,267.63,267.63,0,0,1,10.56,39.85,175.71,175.71,0,0,1,3,25.56c.21,7.11.42,14.23.14,21.32a199.27,199.27,0,0,1-6.52,43c-2.12,8-4.71,15.89-7.09,23.83-.15.49-.36,1-.55,1.46Z" transform="translate(0)"/><path class="cls-1" d="M109.85,28h1.57q35.14,0,70.3,0c.9,0,1.36.17,1.7,1.14a267.33,267.33,0,0,1,11.15,43.13A205.75,205.75,0,0,1,197,119.1a231.09,231.09,0,0,1-10.85,55.78c-.92,2.89-1.91,5.75-2.85,8.63a1,1,0,0,1-1.08.81q-35.82,0-71.63,0c-.11,0-.23,0-.69-.09Q138.85,106.21,109.85,28Z" transform="translate(0)"/><path class="cls-1" d="M189,184.24Q218,106.12,189,28h1.6q34.92,0,69.84,0a1.63,1.63,0,0,1,1.86,1.3,265.2,265.2,0,0,1,11.52,44.52,214.53,214.53,0,0,1,2.51,24.67,197.49,197.49,0,0,1-.82,29,227.39,227.39,0,0,1-13.32,55.83c-.24.63-.45,1-1.3,1q-35.58,0-71.16,0C189.57,184.3,189.45,184.28,189,184.24Z" transform="translate(0)"/><path class="cls-1" d="M238.18,238V226h6.73v23.11c-2.15,0-4.33,0-6.51,0-.3,0-.66-.51-.85-.85-2.15-3.77-4.27-7.55-6.61-11.3V249h-6.69V225.87c2.26,0,4.56,0,6.86,0,.29,0,.64.53.83.88,2,3.6,3.93,7.21,5.9,10.82A3.75,3.75,0,0,0,238.18,238Z" transform="translate(0)"/><path class="cls-1" d="M254.23,248.86v-22.8c.11-.08.17-.16.23-.16,4.12,0,8.24-.15,12.35,0,5.43.28,9,3.88,9.39,9.34a21.38,21.38,0,0,1-.14,5.12c-.81,4.85-3.9,8-8.79,8.38C263,249.13,258.66,248.86,254.23,248.86Zm7.18-5.79c2.64,0,5.4.57,6.93-2.24a6.28,6.28,0,0,0-.26-7c-1.66-2.3-4.2-2-6.67-1.91Z" transform="translate(0)"/><path class="cls-1" d="M111.38,237.53c0,4.68-1.7,8.59-6,10.74a11.93,11.93,0,0,1-12.62-.82,10.43,10.43,0,0,1-4.5-7.48c-.58-4.1,0-8,3-11.15a12.12,12.12,0,0,1,13.18-2.62c4.58,1.89,6.71,5.54,7,10.37C111.4,236.89,111.38,237.21,111.38,237.53Zm-6.94,0a28.11,28.11,0,0,0-.87-3.71,4,4,0,0,0-3.88-2.68A4.15,4.15,0,0,0,95.77,234a9.65,9.65,0,0,0,0,7.11,4,4,0,0,0,3.78,2.67,3.84,3.84,0,0,0,3.87-2.49A31.34,31.34,0,0,0,104.44,237.55Z" transform="translate(0)"/><path class="cls-1" d="M172.92,225.35c7,0,11.86,5,11.81,12.16s-4.85,12.08-11.77,12.08-11.69-4.93-11.71-12.11S166,225.36,172.92,225.35Zm-4.8,12a22.37,22.37,0,0,0,1.32,4.28,4,4,0,0,0,7.12,0,8.62,8.62,0,0,0,0-8.38,4,4,0,0,0-7-.13A21.84,21.84,0,0,0,168.12,237.39Z" transform="translate(0)"/><path class="cls-1" d="M54.1,237c.32,5.07-2.39,9.81-6.65,11.63A12.38,12.38,0,0,1,33.73,246c-5.13-5.48-4.22-17.93,5.46-20.28C46.26,224,53.75,227.87,54.1,237Zm-16.54.38a23.65,23.65,0,0,0,1.25,4.25,4,4,0,0,0,7.11.11,8.43,8.43,0,0,0-.06-8.57,4,4,0,0,0-7,.11A22.88,22.88,0,0,0,37.56,237.34Z" transform="translate(0)"/><path class="cls-1" d="M193.71,225.9h7.16v1.27c0,4.08,0,8.15,0,12.23a8.74,8.74,0,0,0,.17,1.78,2.94,2.94,0,0,0,3.33,2.59,2.83,2.83,0,0,0,3-2.65,12.71,12.71,0,0,0,.21-2.13c0-4.32,0-8.63,0-13h7.12c0,.37.06.72.06,1.06,0,4.32,0,8.64,0,13a16.9,16.9,0,0,1-.38,3.32,7.27,7.27,0,0,1-5.63,5.74,17,17,0,0,1-9.13,0,7.39,7.39,0,0,1-5.85-7.3C193.54,236.49,193.71,231.25,193.71,225.9Z" transform="translate(0)"/><path class="cls-1" d="M151.12,232.92h-6.53a3.22,3.22,0,0,0-4.71-2.08c-1.1.55-1.23,1.61-.15,2.2a17.91,17.91,0,0,0,3.24,1.19c1.71.53,3.48.9,5.14,1.55a5.78,5.78,0,0,1,4,5.17c.22,3-.76,5.47-3.4,6.89a14,14,0,0,1-13.56.19,7,7,0,0,1-3.84-6.75h7q.88,4,4.9,3a1.93,1.93,0,0,0,1.71-1.75c.09-1-.63-1.42-1.4-1.68-2.38-.78-4.81-1.45-7.17-2.29s-3.91-2.22-4.16-4.77a6.9,6.9,0,0,1,4.62-7.56,13.26,13.26,0,0,1,10.27.2A6.58,6.58,0,0,1,151.12,232.92Z" transform="translate(0)"/><path class="cls-1" d="M66.75,249.06c-2.3-7.7-4.58-15.36-6.92-23.2,2.36,0,4.54,0,6.72,0,.29,0,.71.64.82,1.05,1.1,3.95,2.15,7.92,3.21,11.88.07.23.15.44.32.93,1-3.92,2-7.58,3-11.25.7-2.66.69-2.66,3.46-2.66h4.19a2.36,2.36,0,0,1,.39.1l-1.29,4.19q-2.79,9-5.57,17.91c-.21.68-.47,1-1.3,1C71.46,249,69.14,249.06,66.75,249.06Z" transform="translate(0)"/></svg>