<?xml version="1.0" standalone="no"?>
<!DOCTYPE svg PUBLIC "-//W3C//DTD SVG 20010904//EN"
 "http://www.w3.org/TR/2001/REC-SVG-20010904/DTD/svg10.dtd">
<svg version="1.0" xmlns="http://www.w3.org/2000/svg"
 width="239.000000pt" height="91.000000pt" viewBox="0 0 239.000000 91.000000"
 preserveAspectRatio="xMidYMid meet">

<g transform="translate(0.000000,91.000000) scale(0.100000,-0.100000)"
fill="#ffffff" stroke="none">
<path d="M106 898 c-3 -7 -7 -33 -11 -58 -3 -25 -24 -162 -46 -305 -21 -143
-39 -276 -39 -295 0 -101 63 -185 160 -214 172 -51 382 -16 482 81 66 65 82
118 132 453 25 168 46 315 46 328 0 22 -1 22 -160 22 -157 0 -160 0 -164 -22
-8 -37 -33 -199 -61 -403 -29 -204 -41 -234 -84 -220 -18 5 -21 12 -16 38 14
85 85 579 85 592 0 13 -25 15 -160 15 -120 0 -162 -3 -164 -12z"/>
<path d="M914 902 c-6 -4 -16 -45 -23 -92 -6 -47 -14 -102 -17 -122 l-6 -38
84 0 c47 0 87 -2 89 -5 3 -2 -16 -143 -41 -312 l-46 -308 159 -3 c88 -1 162 0
165 3 3 3 26 144 51 313 l46 307 91 3 90 3 17 112 c9 62 17 120 17 130 0 16
-24 17 -332 17 -183 0 -338 -4 -344 -8z"/>
<path d="M1656 883 c-27 -130 -96 -645 -90 -678 22 -137 119 -197 319 -199
147 -1 233 25 310 95 78 72 89 107 142 447 25 163 46 311 47 327 l1 30 -161 3
-162 2 -6 -32 c-3 -18 -24 -159 -47 -313 -42 -286 -49 -311 -89 -302 -23 4
-15 101 29 387 21 135 36 248 34 253 -2 4 -76 7 -163 7 l-158 0 -6 -27z"/>
</g>
</svg>
